<svg xmlns="http://www.w3.org/2000/svg" id="Слой_1" x="0" y="0" viewBox="0 0 2000 796.3" xml:space="preserve"><style>.st3{fill:#fcee21}</style><path d="M1861.8 756.6h-1723c-71 0-129-58-129-129V170.4c0-71 58-129 129-129h1723c70.9 0 129 58 129 129v457.2c0 71-58 129-129 129z" fill="#fff"/><circle class="st3" cx="290.6" cy="343.9" r="106.7"/><circle class="st3" cx="605.2" cy="343.9" r="106.7"/><path d="M575.4 380.3H323.8c-24.9 0-45.7-15.3-53.2-39.1-7.4-23.7 1-48.2 21.4-62.4l1.1-.7 173.1-101.3c29.5-17.2 67.8-8.8 87.4 19.2l69.7 100c10.4 17.4 10.6 38.4.6 56.1-10.1 17.7-28.2 28.2-48.5 28.2zm-265.5-74.6c-10 7.2-11 18.1-8.5 25.9 2.5 7.9 9.7 16.4 22.3 16.4h251.6c8.5 0 16.1-4.4 20.4-11.8 4.1-7.3 4.1-15.9 0-23.1L527 214.6c-10-14.3-29.5-18.6-44.6-9.8L309.9 305.7zm697.1 91.7V290.2l-52.8 90.2h-15.8l-51.9-90.5v107.4H853V235.8h38.4l55.7 101.1 58.4-101.1h34.3l.3 161.6H1007zm109.4-8.5c-12.7-7.1-22.6-16.9-29.8-29.5-7.1-12.6-10.7-26.9-10.7-42.8 0-15.9 3.6-30.2 10.7-42.7 7.1-12.5 17.1-22.3 29.8-29.4 12.7-7.1 27-10.6 42.8-10.6 16 0 30.4 3.5 43.1 10.6 12.7 7.1 22.6 16.8 29.8 29.4 7.1 12.5 10.7 26.7 10.7 42.7 0 15.9-3.6 30.2-10.7 42.8-7.1 12.6-17.1 22.4-29.8 29.5-12.7 7.1-27.1 10.6-43.1 10.6-15.8 0-30.1-3.5-42.8-10.6zm76.3-35.7c8.8-9.3 13.2-21.5 13.2-36.6 0-15.1-4.4-27.3-13.2-36.6-8.8-9.3-19.9-13.9-33.4-13.9s-24.6 4.6-33.3 13.9c-8.7 9.3-13.1 21.5-13.1 36.6 0 15.1 4.3 27.3 13.1 36.6 8.7 9.3 19.8 13.9 33.3 13.9 13.4 0 24.6-4.6 33.4-13.9zm-183.8 226.2c0 14.7-5.6 26.3-16.7 34.6-11.1 8.4-27.6 12.6-49.3 12.6h-89.4v-164h85.3c20.7 0 36.8 3.7 48.2 11.2 11.4 7.5 17.2 18 17.2 31.5 0 7.9-2 14.8-5.9 20.9-3.9 6-9.5 10.9-16.7 14.5 18.2 6.2 27.3 19.1 27.3 38.7zm-105.6-50.9h30.5c12.9 0 19.4-4.9 19.4-14.8 0-9.5-6.5-14.2-19.4-14.2h-30.5v29zm54.9 45.7c0-10.1-6.6-15.1-19.6-15.1h-35.2v30.3H938c13.4-.1 20.2-5.1 20.2-15.2zm239-15.1h-115.5c2.3 8.5 6.9 15 13.6 19.5s15.2 6.8 25.4 6.8c7.6 0 14.2-1.1 19.8-3.3 5.6-2.2 11.2-5.8 16.9-10.9l29.3 31.5c-15.4 17.8-38 26.6-67.7 26.6-18.6 0-34.9-3.6-49-10.9-14.1-7.3-25-17.3-32.7-30.3s-11.6-27.5-11.6-43.9c0-16.1 3.8-30.6 11.3-43.4 7.5-12.8 17.9-22.8 31.2-30.1 13.3-7.3 28.3-10.9 44.9-10.9 15.8 0 30.2 3.4 43.1 10.1 12.9 6.8 23.1 16.5 30.6 29.4 7.5 12.8 11.3 28 11.3 45.5 0 .5-.3 5.2-.9 14.3zm-105.4-50.9c-5.8 5-9.4 11.9-11 20.6h65.1c-1.6-8.7-5.2-15.5-11-20.6-5.8-5-13-7.6-21.6-7.6-8.6.1-15.8 2.6-21.5 7.6zm296.9-45.7v164H1333V508.2h-40.2l-1.2 25.1c-.8 21.4-2.8 39-6.2 53-3.3 13.9-8.8 24.8-16.4 32.5-7.6 7.8-18.1 11.6-31.4 11.6-6.8 0-15.8-1.3-27-3.9l2.3-46.9c3.5.4 5.9.6 7 .6 6.1 0 10.7-2 13.8-6.1 3.1-4 5.3-9.4 6.5-16.2 1.2-6.8 2-15.8 2.3-27.1l2.3-68.4h143.9zm37.5 0h55.4v85.9l66.6-85.9h51.3v164h-55.7v-86.2l-66 86.2h-51.6v-164zm285.4 105.7h-18.8v58.4h-55.7v-164h55.7v60.5h19.9l39-60.5h58.9l-53.4 78.7 56.9 85.3h-65.7l-36.8-58.4zm-401.1-170.8h-31.6V235.5h36.7v105.9l88.3-105.9h31.6v161.9h-36.7V291.5l-88.3 105.9zm96.8-198.3c-13.7 9.2-30.5 13.8-50.1 13.8-19.7 0-36.4-4.6-50.1-13.8v-29.3c15.3 9.4 32 14.2 50.1 14.2s34.8-4.7 50.1-14.2v29.3z"/></svg>