<svg xmlns="http://www.w3.org/2000/svg" id="Слой_1" x="0" y="0" viewBox="0 0 846.4 848" xml:space="preserve"><style>.st1{display:none}.st2{display:inline}.st3{fill:#fcee21}.st4{fill:#fff}.st5{display:inline;fill:#fcee21}</style><g class="st1"><g class="st2"><circle class="st3" cx="497.6" cy="-1099" r="73"/></g><g class="st2"><circle class="st3" cx="173" cy="-1099" r="73"/></g><path d="M448.6-980.6c-22.5 0-43.4-11.3-55.7-30.1l-20.2-31c-6.9-10.6-18.6-16.9-31.2-16.9h-16.3c-12.6 0-24.3 6.3-31.2 16.9l-20.2 31c-12.3 18.9-33.2 30.1-55.7 30.1-33.9 0-62.3-25.4-66.1-59l-9.8-85.7c-2.7-23.4 4.8-47 20.5-64.6s38.2-27.7 61.8-27.7c21.8 0 42.4 8.4 58 23.7 6.2 6.1 12.3 10.5 18.7 13.4l1.7.8c19.4 9 41.7 9 61.2 0l1.7-.8c6.4-3 12.5-7.4 18.7-13.4 15.6-15.3 36.2-23.7 58-23.7 23.6 0 46.1 10.1 61.8 27.7 15.7 17.6 23.2 41.1 20.5 64.5l-9.8 85.7c-4.2 33.8-32.6 59.1-66.4 59.1zm-123.5-107.2h16.3c22.5 0 43.4 11.3 55.7 30.1l20.2 31c6.9 10.6 18.6 16.9 31.2 16.9 19 0 34.9-14.2 37.1-33l9.8-85.7c1.7-15.2-3.1-30.4-13.2-41.7-10.1-11.4-24.7-17.9-40-17.9-14.1 0-27.4 5.4-37.5 15.3-8.6 8.4-17.4 14.7-26.8 19.1l-1.7.8c-27.3 12.7-58.6 12.7-85.9 0l-1.7-.8c-9.4-4.4-18.2-10.6-26.8-19.1-10.1-9.9-23.4-15.3-37.5-15.3-15.2 0-29.8 6.5-40 17.9-10.1 11.4-15 26.6-13.2 41.7l9.8 85.7c2.2 18.8 18.1 33 37.1 33 12.6 0 24.3-6.3 31.2-16.9l20.2-31c12.3-18.9 33.2-30.1 55.7-30.1zm539.3 63.1v-97.1l-47.8 81.7h-14.3l-47-82v97.3H725v-146.3h34.8l50.5 91.6 52.9-91.6h31.1l.3 146.4h-30.2zm99.1-7.7c-11.5-6.4-20.5-15.3-27-26.7s-9.7-24.4-9.7-38.8c0-14.4 3.2-27.3 9.7-38.7 6.5-11.3 15.5-20.2 27-26.6s24.4-9.6 38.8-9.6c14.5 0 27.5 3.2 39.1 9.6 11.5 6.4 20.5 15.3 27 26.6s9.7 24.2 9.7 38.7c0 14.4-3.2 27.4-9.7 38.8-6.5 11.4-15.5 20.3-27 26.7s-24.5 9.6-39.1 9.6c-14.4 0-27.3-3.2-38.8-9.6zm69.1-32.4c8-8.4 12-19.5 12-33.2 0-13.7-4-24.8-12-33.2s-18.1-12.6-30.3-12.6-22.3 4.2-30.2 12.6c-7.9 8.4-11.8 19.5-11.8 33.2 0 13.7 3.9 24.8 11.8 33.2 7.9 8.4 17.9 12.6 30.2 12.6 12.2.1 22.3-4.1 30.3-12.6zm193.2-106.3v146.4H1196v-44.1h-37.5l-29 44.1h-35.6l33.5-48.8c-10.3-3.7-18.1-9.3-23.5-16.9s-8.1-16.9-8.1-28.1c0-16.8 5.8-29.8 17.3-38.9s27.4-13.7 47.6-13.7h65.1zm-96.2 53.7c0 16.4 10.4 24.7 31.1 24.7h35.3v-49.6h-34.3c-21.4 0-32.1 8.3-32.1 24.9zM792.8-871.3h-17v52.9h-50.5V-967h50.5v54.8h18.1l35.3-54.8h53.4l-48.4 71.3 51.5 77.3h-59.4l-33.5-52.9zm134.7 45.5c-12.4-6.6-22.1-15.7-29.1-27.4s-10.5-24.9-10.5-39.8c0-14.6 3.5-27.8 10.5-39.5s16.6-20.8 29-27.3c12.3-6.5 26.3-9.7 41.8-9.7 15.6 0 29.6 3.2 42 9.7s22.1 15.5 29 27.1 10.4 24.8 10.4 39.6-3.5 28.1-10.4 39.8c-6.9 11.7-16.6 20.8-29 27.4s-26.4 9.9-42 9.9c-15.4.1-29.3-3.2-41.7-9.8zm63.5-41c5.7-6.3 8.5-15 8.5-26.2 0-11-2.8-19.6-8.5-25.8-5.7-6.2-12.9-9.3-21.8-9.3s-16.1 3.1-21.8 9.3c-5.7 6.2-8.5 14.8-8.5 25.8 0 11.2 2.8 19.9 8.5 26.2 5.7 6.3 12.9 9.5 21.8 9.5s16.1-3.2 21.8-9.5zm83.2-100.2h50.2v55.1h51.8V-967h50.5v148.6h-50.5v-52.1h-51.8v52.1h-50.2V-967zm216 141.2c-12.6-6.6-22.4-15.7-29.4-27.4s-10.5-24.9-10.5-39.8c0-14.8 3.5-28 10.5-39.6s16.8-20.7 29.4-27.1c12.6-6.5 26.8-9.7 42.8-9.7 16.3 0 30.4 3.6 42.2 10.8 11.9 7.2 20.3 17.2 25.2 30l-39.1 20.6c-6.6-13.3-16.1-20-28.7-20-9 0-16.5 3.1-22.5 9.3-5.9 6.2-8.9 14.8-8.9 25.8 0 11.2 3 19.9 8.9 26.2 5.9 6.3 13.4 9.5 22.5 9.5 12.6 0 22.1-6.7 28.7-20l39.1 20.6c-5 12.8-13.4 22.8-25.2 30-11.9 7.2-26 10.8-42.2 10.8-16-.1-30.2-3.4-42.8-10zm158.9 0c-12.4-6.6-22.1-15.7-29.1-27.4s-10.5-24.9-10.5-39.8c0-14.6 3.5-27.8 10.5-39.5s16.6-20.8 29-27.3c12.3-6.5 26.3-9.7 41.8-9.7 15.6 0 29.6 3.2 42 9.7s22.1 15.5 29 27.1 10.4 24.8 10.4 39.6-3.5 28.1-10.4 39.8c-6.9 11.7-16.6 20.8-29 27.4s-26.4 9.9-42 9.9c-15.4.1-29.3-3.2-41.7-9.8zm63.5-41c5.7-6.3 8.5-15 8.5-26.2 0-11-2.8-19.6-8.5-25.8-5.7-6.2-12.9-9.3-21.8-9.3s-16.1 3.1-21.8 9.3c-5.7 6.2-8.5 14.8-8.5 25.8 0 11.2 2.8 19.9 8.5 26.2 5.7 6.3 12.9 9.5 21.8 9.5s16.1-3.2 21.8-9.5zM1739.7-967v148.6h-50.4v-107.2h-36.4l-1.1 22.8c-.7 19.4-2.6 35.4-5.6 48s-8 22.4-14.9 29.5c-6.9 7-16.4 10.6-28.4 10.6-6.2 0-14.3-1.2-24.4-3.6l2.1-42.5c3.2.4 5.3.5 6.4.5 5.5 0 9.7-1.8 12.5-5.5s4.8-8.5 5.8-14.7c1.1-6.1 1.8-14.3 2.1-24.5l2.1-62h130.2zm162.4 59.3c10.1 8.6 15.1 20.8 15.1 36.7 0 16.5-5.8 29.4-17.4 38.8s-27.6 14-48 13.8h-78.1V-967h50.2v46.1h34.3c19.2.2 33.8 4.6 43.9 13.2zm-36.1 35.9c0-5.8-1.6-10.1-4.8-12.9-3.2-2.7-8-4.2-14.3-4.4H1824v34.8l22.9.3c12.7 0 19.1-5.9 19.1-17.8z"/></g><circle class="st4" cx="1003.3" cy="-994.9" r="396.2"/><circle class="st3" cx="1173.7" cy="-996.4" r="76.3"/><circle class="st3" cx="834.5" cy="-996.4" r="76.3"/><path d="M1122.5-872.6c-23.6 0-45.3-11.8-58.2-31.5l-21.2-32.4c-7.2-11-19.4-17.6-32.6-17.6h-17c-13.2 0-25.4 6.6-32.6 17.6l-21.2 32.4c-12.9 19.7-34.7 31.5-58.2 31.5-35.4 0-65.1-26.5-69.1-61.7l-10.2-89.6c-2.8-24.5 5-49.1 21.4-67.5s40-28.9 64.6-28.9c22.8 0 44.3 8.8 60.6 24.7 6.5 6.4 12.9 11 19.5 14.1l1.8.8c20.3 9.4 43.6 9.4 63.9 0l1.8-.8c6.6-3.1 13-7.7 19.5-14 16.3-16 37.8-24.7 60.6-24.7 24.6 0 48.2 10.5 64.6 28.9 16.4 18.4 24.2 43 21.4 67.5l-10.2 89.6c-4.1 35.1-33.8 61.6-69.2 61.6zm-129-112.1h17c23.6 0 45.3 11.8 58.2 31.5l21.2 32.4c7.2 11 19.4 17.6 32.6 17.6 19.8 0 36.5-14.8 38.7-34.5l10.2-89.6c1.8-15.8-3.2-31.7-13.8-43.6-10.6-11.9-25.8-18.7-41.8-18.7-14.7 0-28.7 5.7-39.2 16-9 8.8-18.2 15.4-28 19.9l-1.8.8c-28.5 13.3-61.2 13.3-89.7 0l-1.8-.8c-9.9-4.6-19-11.1-28-19.9-10.5-10.3-24.4-16-39.2-16-15.9 0-31.2 6.8-41.8 18.7-10.6 11.9-15.7 27.8-13.8 43.6l10.2 89.6c2.3 19.7 18.9 34.5 38.7 34.5 13.2 0 25.4-6.6 32.6-17.6l21.2-32.4c12.9-19.7 34.7-31.5 58.3-31.5z"/><circle class="st4" cx="421.7" cy="424.3" r="396.2"/><g class="st1"><circle class="st5" cx="590.1" cy="422.8" r="76.3"/></g><g class="st1"><circle class="st5" cx="250.9" cy="422.8" r="76.3"/></g><g class="st1"><path class="st2" d="M542.8 546.7c-23.6 0-45.3-11.8-58.2-31.5l-21.2-32.4c-7.2-11-19.4-17.6-32.6-17.6h-17c-13.2 0-25.4 6.6-32.6 17.6L360 515.1c-12.9 19.7-34.7 31.5-58.2 31.5-35.4 0-65.1-26.5-69.1-61.7l-10.2-89.6c-2.8-24.5 5-49.1 21.4-67.5s40-28.9 64.6-28.9c22.8 0 44.3 8.8 60.6 24.7 6.5 6.4 12.9 11 19.5 14.1l1.8.8c20.3 9.4 43.6 9.4 63.9 0l1.8-.8c6.6-3.1 13-7.7 19.5-14 16.3-16 37.8-24.7 60.6-24.7 24.6 0 48.2 10.5 64.6 28.9 16.4 18.4 24.2 43 21.4 67.5L611.9 485c-4 35.1-33.7 61.7-69.1 61.7zm-129-112.1h17c23.6 0 45.3 11.8 58.2 31.5l21.2 32.4c7.2 11 19.4 17.6 32.6 17.6 19.8 0 36.5-14.8 38.7-34.5l10.2-89.6c1.8-15.8-3.2-31.7-13.8-43.6-10.6-11.9-25.8-18.7-41.8-18.7-14.7 0-28.7 5.7-39.2 16-9 8.8-18.2 15.4-28 19.9l-1.8.8c-28.5 13.3-61.2 13.3-89.7 0l-1.8-.8c-9.9-4.6-19-11.1-28-19.9-10.5-10.3-24.4-16-39.2-16-15.9 0-31.2 6.8-41.8 18.7-10.6 11.9-15.7 27.8-13.8 43.6l10.2 89.6c2.3 19.7 18.9 34.5 38.7 34.5 13.2 0 25.4-6.6 32.6-17.6l21.2-32.4c13-19.8 34.7-31.5 58.3-31.5z"/></g><circle class="st3" cx="279.1" cy="453.9" r="94.4"/><circle class="st3" cx="557.2" cy="453.9" r="94.4"/><path d="M530.8 486.1H308.4c-22 0-40.4-13.6-47-34.5-6.6-21 .8-42.6 18.9-55.2l.9-.6 153-89.5c26-15.2 60-7.8 77.2 17l61.6 88.4c9.2 15.4 9.4 33.9.5 49.6-8.7 15.5-24.7 24.8-42.7 24.8zm-234.6-66c-8.8 6.4-9.7 16-7.5 22.9 2.2 7 8.5 14.5 19.8 14.5h222.4c7.5 0 14.3-3.9 18-10.5 3.7-6.4 3.6-14 0-20.4l-60.8-87.1c-8.8-12.6-26.1-16.4-39.4-8.6l-152.5 89.2z"/></svg>